<?xml version="1.0" encoding="utf-8"?>
<!-- Generator: Adobe Illustrator 19.2.1, SVG Export Plug-In . SVG Version: 6.00 Build 0)  -->
<svg version="1.1" id="Layer_1" xmlns="http://www.w3.org/2000/svg" xmlns:xlink="http://www.w3.org/1999/xlink" x="0px" y="0px"
	 viewBox="0 0 200 600" style="enable-background:new 0 0 200 600;" xml:space="preserve">
<style type="text/css">
	.st0{display:none;}
	.st1{display:inline;}
	.st2{fill:#1D1E1E;}
	.st3{fill:url(#SVGID_1_);}
</style>
<g id="Layer_1_1_" class="st0">
	<g class="st1">
		<path class="st2" d="M146.3,414c-2.4,2.2-4.9,4.4-7.3,6.6c-7.7,7.3-15.5,14.5-23.2,21.8c-0.7,0.6-1.5,1.2-2.4,1.5
			c-12.2,4.8-24.3,9.6-36.5,14.3c-0.8,0.3-1.3,0.6-1.5,1.5c-2.3,10.3-4.7,20.6-7.1,30.9c-0.3,1.2,0.4,1.6,1.2,2
			c18.7,11.5,37.4,22.8,56,34.5c3.7,2.3,6.8,5.7,10.2,8.6c1.2,1,2.4,2,3.8,3.2c-0.8,0.5-1.5,0.9-2.1,1.4
			c-13.9,9.6-27.8,19.2-40.7,30.1c-0.5,0.4-0.8,1.2-0.8,1.8c0.1,2.3,0.4,4.5,0.4,6.8c0,1.4,0.5,2.4,1.4,3.3c2.4,2.5,4.6,5.1,6.9,7.7
			c-0.2,0.3-0.4,0.6-0.6,0.9c-0.2,0-0.4,0-0.6,0c-0.2-0.4-0.4-0.9-0.7-1.2c-2.2-2.5-4.5-5-6.8-7.6c-0.4-0.4-0.7-1.1-0.7-1.6
			c-0.3-2.9-0.4-5.8-0.6-8.7c-0.1-0.9,0.2-1.5,0.9-2.1c12.8-10.8,26.6-20.3,40.3-29.8c0.5-0.3,0.9-0.7,1.5-1.1
			c-2.7-2.4-5.4-4.8-8-7.2c-4.8-4.4-10.7-7.2-16.1-10.6c-15-9.3-30.1-18.6-45.2-27.8c-0.9-0.6-1.2-1-1-2.2c2.5-10.7,5-21.5,7.5-32.2
			c0.1-0.6,0.8-1.2,1.4-1.4c12.4-4.9,24.8-9.8,37.2-14.6c0.5-0.2,1.1-0.4,1.5-0.8c10.1-9.4,20.1-18.9,30.2-28.4
			c-2.3-4.8-4.7-9.5-7-14.3c-4-8.1-7.9-16.2-11.9-24.3c-0.3-0.7-1.1-1.3-1.7-1.6c-14.4-5.8-28.8-11.5-43.2-17.2c-1-0.4-1.6-1-2.1-2
			c-7.9-16.7-15.7-33.4-23.6-50.1c-0.3-0.5-0.6-1-0.9-1.5c0-0.4,0-0.8,0-1.3c0.4-0.8,0.9-1.6,1.2-2.4c5.9-15.1,11.8-30.1,17.7-45.2
			c0.3-0.8,1-1.6,1.7-2.1c11.6-7.5,23.3-15,34.9-22.5c0.8-0.5,1.5-1.2,2.1-1.9c6.6-8.3,13.2-16.6,19.7-24.9c0.4-0.6,0.7-1.6,0.5-2.3
			c-3.4-14.3-7-28.6-10.4-42.9c-0.2-1-0.8-1.4-1.7-1.7c-13.6-3.9-27.2-7.9-40.9-11.8c-0.3-0.1-0.6-0.2-1-0.4
			c0.2-3.6,0.5-7.3,0.7-10.9c0.5-6.8,1-13.6,1.5-20.5c0.5-7,1-14,1.5-20.9c0.4-5.2,0.8-10.4,1-15.5c0.1-1.1,0.4-1.8,1.4-2.4
			c16.1-11,32.1-22,48.2-33c0.4-0.3,0.8-0.5,1.3-0.9c-0.4-0.4-0.8-0.8-1.2-1.2c-8.7-8.7-17.5-17.5-26.2-26.2c-0.6-0.6-1-1.2-0.5-2
			c0.2,0,0.4,0,0.6,0c0.3,0.4,0.6,0.8,1,1.2c8.8,8.8,17.5,17.6,26.3,26.4c0.7,0.7,1.3,1.3,2.2,2.1c-0.9,0.6-1.6,1-2.3,1.5
			C117.6,51.9,101.5,63,85.4,74c-0.8,0.6-1,1.1-1.1,2.1c-0.6,8.4-1.2,16.7-1.8,25.1c-0.5,6.6-0.9,13.1-1.4,19.7
			c-0.5,6.8-0.9,13.6-1.4,20.5c-0.1,1,0.2,1.3,1.1,1.6c13.4,3.8,26.7,7.8,40.1,11.6c1.3,0.4,1.7,0.9,2,2.2
			c3.5,14.7,7.2,29.4,10.7,44.1c0.1,0.5,0,1.4-0.4,1.8c-6.9,8.8-13.8,17.5-20.7,26.2c-0.4,0.6-1.1,1-1.7,1.4
			c-11.6,7.4-23.1,14.8-34.7,22.3c-0.8,0.5-1.6,1.4-1.9,2.3c-6,15.2-12,30.5-18,45.8c-0.4,1.1-0.4,1.9,0.1,3
			c7.8,16.5,15.6,33,23.4,49.5c0.5,1.1,1.1,1.7,2.3,2.2c14.3,5.6,28.6,11.3,42.9,17c0.8,0.3,1.6,1.1,2,1.8
			c6.3,12.7,12.5,25.5,18.7,38.2c0.2,0.4,0.5,0.8,0.7,1.2C146.3,413.6,146.3,413.8,146.3,414z"/>
	</g>
</g>
<g id="Layer_2">
	<g>
		
			<linearGradient id="SVGID_1_" gradientUnits="userSpaceOnUse" x1="105.35" y1="590" x2="105.35" y2="8.4999" gradientTransform="matrix(1 0 0 -1 0 600)">
			<stop  offset="0" style="stop-color:#FBEE3F"/>
			<stop  offset="1" style="stop-color:#FCB23B"/>
		</linearGradient>
		<path class="st3" d="M107.6,10c0.1,0.3,0.2,0.7,0.3,1.2c-4.3,2-8.6,4.1-12.9,6.1c-2.9,1.4-5.9,2.7-8.8,4.2
			c-0.6,0.3-1.2,0.7-1.5,1.3C78.6,32.9,72.5,43,66.4,53.2c-0.1,0.1-0.1,0.3-0.3,0.8c0.4,0.3,0.9,0.6,1.3,1
			c17,16.6,33.9,33.2,50.9,49.7c4.8,4.7,8.6,10.1,12.7,15.3c12.8,16.3,25.4,32.7,38.1,49c0.5,0.6,1.1,1.1,1.6,1.6c0,0.2,0,0.4,0,0.6
			c-0.9,0.4-1.7,0.7-2.6,1.1c-30.7,14-61.4,28.1-92,42.1c-0.7,0.3-1.4,1-1.8,1.6c-10.8,19.6-21.6,39.1-32.4,58.7
			c-0.4,0.7-0.5,1.6-0.3,2.4c3.7,14.6,7.5,29.1,11.3,43.7c0.3,1,0.7,1.5,1.7,1.9c27.3,10,54.6,20,82,30c1.2,0.4,1.8,1.1,2.2,2.3
			c7.2,22.2,14.4,44.5,21.6,66.9c-3,1-6,1.9-8.9,2.9c-27.6,8.8-55.2,17.7-82.8,26.5c-1,0.3-1.5,0.7-1.7,1.9
			c-1.2,8.1-2.4,16.3-3.7,24.4c-0.6,4.1-1.2,8.1-1.8,12.3c4.4,1.9,8.7,3.8,13,5.7c25.2,11,50.5,22,75.7,33.1
			c0.7,0.3,1.5,1.1,1.8,1.9c3.3,9.2,6.5,18.5,9.7,27.9c-5,3.1-9.9,6.1-14.8,9.2c-12.5,7.7-24.9,15.3-37.4,23
			c-0.4,0.2-0.7,0.6-1.1,0.8c-0.1,0-0.2,0-0.3,0c-0.2-0.4-0.4-0.7-0.6-1.1c17.6-10.8,35.1-21.6,52.7-32.4c-2.6-7.6-5.5-15-7.7-22.6
			c-1.1-3.8-3.2-5.8-6.8-7.4c-28.1-12.1-56.1-24.4-84.1-36.6c-1.2-0.5-1.4-1-1.2-2.2c1.3-8.1,2.5-16.2,3.7-24.2
			c0.7-4.4,1.2-8.8,2-13.1c0.1-0.5,0.9-1.1,1.4-1.3c12-3.9,24.1-7.8,36.2-11.6c18.1-5.8,36.2-11.6,54.3-17.4
			c0.3-0.1,0.6-0.2,0.9-0.3c-2.3-7.2-4.6-14.3-6.9-21.3c-4.7-14.6-9.5-29.3-14.2-43.9c-0.3-1.1-0.9-1.6-1.9-2
			c-27.2-9.9-54.3-19.9-81.5-29.8c-1.6-0.6-2.3-1.4-2.7-3c-3.7-14.6-7.6-29.2-11.4-43.8c-0.1-0.2-0.2-0.4-0.3-0.6c0-0.4,0-0.8,0-1.3
			c0.3-0.4,0.6-0.7,0.8-1.1c10.8-19.5,21.6-39.1,32.3-58.6c0.6-1.2,1.5-1.9,2.7-2.5c30.5-13.9,61.1-27.9,91.6-41.9
			c0.4-0.2,0.7-0.3,1.3-0.6c-2.2-2.8-4.3-5.6-6.4-8.3c-13.5-17.3-27-34.7-40.4-52c-0.6-0.7-1.2-1.5-1.9-2.1
			c-18.2-17.8-36.4-35.6-54.5-53.4c-0.3-0.3-0.6-0.5-1-0.8c0.7-1.1,1.3-2.2,1.9-3.2c5.7-9.6,11.5-19.2,17.2-28.7
			c0.4-0.7,1.2-1.3,1.9-1.7c6.8-3.3,13.6-6.5,20.4-9.7c0.4-0.2,0.8-0.5,1.1-0.7C107.1,10,107.4,10,107.6,10z"/>
	</g>
</g>
</svg>
